<?xml version="1.0" encoding="utf-8"?>
<!-- Generator: Adobe Illustrator 22.0.0, SVG Export Plug-In . SVG Version: 6.00 Build 0)  -->
<svg version="1.1" id="Layer_1" xmlns="http://www.w3.org/2000/svg" xmlns:xlink="http://www.w3.org/1999/xlink" x="0px" y="0px"
	 viewBox="0 0 300 300" style="enable-background:new 0 0 300 300;" xml:space="preserve">
<style type="text/css">
	.st0{fill:none;}
	.st1{fill:#E67E22;stroke:#000000;stroke-width:3;}
	.st2{fill:#F39C12;}
	.st3{fill:#FFFFFF;}
	.st4{fill:#A3E048;stroke:#000000;stroke-width:2;}
	.st5{fill:#FF9292;stroke:#000000;stroke-width:2;}
	.st6{fill:none;stroke:#000000;stroke-width:2;}
	.st7{fill:none;stroke:#8E44AD;stroke-width:10;stroke-linecap:round;}
	.st8{fill:#F1C40F;stroke:#000000;}
	.st9{fill:#E67E22;}
</style>
<rect class="st0" width="300" height="300"/>
<path class="st1" d="M75,85l20-40l25,35L75,85z"/>
<path class="st1" d="M225,85l-20-40l-25,35L225,85z"/>
<path class="st2" d="M85,75l12-25l18,25H85z"/>
<path class="st2" d="M215,75l-12-25l-18,25H215z"/>
<ellipse class="st1" cx="150" cy="140" rx="85" ry="75"/>
<path d="M90,100c15-10,30-5,35,10s-5,30-20,25S85,110,90,100z"/>
<path class="st3" d="M208.8,219c0-40.8-13.8-81.5-59.8-81.5S93.7,178.2,93.7,219H208.8z"/>
<ellipse class="st4" cx="115" cy="120" rx="18" ry="20"/>
<ellipse cx="115" cy="120" rx="8" ry="12"/>
<circle class="st3" cx="110" cy="115" r="4"/>
<polygon class="st5" points="151.3,157.6 161.3,147.6 141.3,147.6 "/>
<line class="st6" x1="215.1" y1="145.9" x2="269.9" y2="139.1"/>
<line class="st6" x1="214.7" y1="154.8" x2="273.3" y2="168.2"/>
<line class="st6" x1="80.9" y1="146.1" x2="27.1" y2="133.2"/>
<line class="st6" x1="80.2" y1="154.8" x2="23.3" y2="164"/>
<path class="st7" d="M85,180c30,20,100,20,130,0"/>
<circle class="st8" cx="150" cy="190" r="10"/>
<circle class="st9" cx="150" cy="190" r="5"/>
<line class="st6" x1="144" y1="172.8" x2="152.1" y2="168.2"/>
<line class="st6" x1="151.3" y1="168.2" x2="159.7" y2="171.8"/>
<path d="M199.9,95.6c13,12.5,11.3,28.2-2.2,36.3s-30.4,1.6-28.7-14.2C170.6,102.1,189,92.9,199.9,95.6z"/>
<g>
	<ellipse class="st4" cx="185" cy="120" rx="18" ry="20"/>
	<ellipse cx="185" cy="120" rx="8" ry="12"/>
	<circle class="st3" cx="180" cy="115" r="4"/>
</g>
</svg>